<svg width="230" height="230" viewBox="0 0 230 230" fill="none" xmlns="http://www.w3.org/2000/svg">
<rect width="230" height="230" rx="52" fill="#161C21"/>
<path d="M74.4672 61.5797L114.976 38L155.485 61.5797L140.592 70.2907L114.976 55.422L89.3602 70.2907L74.4672 61.5797ZM155.485 91.3173L140.592 82.6063L114.976 97.475L89.3602 82.6063L74.4672 91.3173V108.739L100.083 123.608V153.346L114.976 162.057L129.869 153.346V123.608L155.485 108.739V91.3173ZM155.485 138.477V121.055L140.592 129.766V147.188L155.485 138.477ZM166.059 144.635L140.443 159.503V176.925L180.952 153.346V106.186L166.059 114.897V144.635ZM151.166 76.4485L166.059 85.1595V102.581L180.952 93.8705V76.4485L166.059 67.7375L151.166 76.4485ZM100.083 165.811V183.233L114.976 191.944L129.869 183.233V165.811L114.976 174.522L100.083 165.811ZM74.4672 138.477L89.3602 147.188V129.766L74.4672 121.055V138.477ZM100.083 76.4485L114.976 85.1595L129.869 76.4485L114.976 67.7375L100.083 76.4485ZM63.893 85.1595L78.786 76.4485L63.893 67.7375L49 76.4485V93.8705L63.893 102.581V85.1595ZM63.893 114.897L49 106.186V153.346L89.5089 176.925V159.503L63.893 144.635V114.897Z" fill="#F0B90B"/>
</svg>
