<svg width="230" height="230" viewBox="0 0 230 230" fill="none" xmlns="http://www.w3.org/2000/svg">
<rect width="230" height="230" rx="52" fill="#4A21EF"/>
<g clip-path="url(#clip0_3_37)">
<path d="M106.375 45C102.114 45 98.0282 46.6927 95.0154 49.7056L47.6888 97.0331C45.8962 98.8255 45 101.175 45 103.525C45 105.874 45.8963 108.223 47.6888 110.016L78.7034 141.031V86.1233C78.7034 82.0258 81.9992 78.7039 86.0967 78.7039C103.408 78.7039 145.547 78.7039 151.295 78.7039L184.999 45.0005L106.375 45Z" fill="white"/>
<path d="M78.705 151.296H143.878C147.975 151.296 151.297 147.974 151.297 143.876V88.9691L182.311 119.984C184.104 121.777 185 124.126 185 126.475C185 128.825 184.104 131.174 182.311 132.967L134.985 180.294C131.972 183.307 127.886 185 123.625 185L45.0016 184.999L78.705 151.296Z" fill="white"/>
</g>
<defs>
<clipPath id="clip0_3_37">
<rect width="140" height="140" fill="white" transform="translate(45 45)"/>
</clipPath>
</defs>
</svg>
